<svg version="1.1" xmlns="http://www.w3.org/2000/svg" width="200" height="100" viewBox="79.9829330444336 152.04791259765625 170.98921966552734 32.95414733886719" xmlns:xlink="http://www.w3.org/1999/xlink"><path d="m184.313 152.578 2.021 0.005 2.021 -0.005C190 152.667 190 152.667 190.667 153.334a150 150 0 0 1 -0.291 5.709l-0.106 1.629q-0.131 1.998 -0.269 3.996h5.333l0.667 -12h8.667q-0.12 4.425 -0.248 8.85 -0.043 1.498 -0.083 2.996A446.001 446.001 0 0 1 203.334 184.667h-8.667v-12l-4.667 0.667 -0.667 11.333h-9.333q0.403 -6.675 0.818 -13.351 0.14 -2.272 0.277 -4.545 0.198 -3.26 0.402 -6.518l0.122 -2.067 0.121 -1.901 0.103 -1.682c0.238 -1.939 0.497 -1.919 2.469 -2.025" fill="#F93434"/><path d="M100 154c1.971 1.83 2.553 3.097 2.888 5.753 0.159 4.337 -0.359 7.511 -3.347 10.831L98.667 171.334c1.223 3.16 2.613 6.243 4 9.333a148.667 148.667 0 0 1 -2.5 2.042l-1.407 1.148C97.333 184.667 97.333 184.667 95.959 184.682c-1.922 -1.015 -2.475 -2.397 -3.459 -4.307 -0.347 -0.66 -0.695 -1.319 -1.052 -1.998C90.667 176.667 90.667 176.667 90.667 175.334h-2.667l0.023 1.873 0.019 2.419 0.023 2.415C88 184 88 184 87.333 184.667c-2.445 0.095 -4.887 0.028 -7.333 0 -0.088 -6.011 0.173 -11.963 0.583 -17.958l0.159 -2.6 0.169 -2.502 0.148 -2.247c0.269 -1.989 0.776 -3.542 1.607 -5.36 12.771 -2.06 12.771 -2.06 17.333 0m-10 6.667c-1.62 2.429 -1.441 3.808 -1.333 6.667 3.543 -1.283 3.543 -1.283 6 -4v-2.667c-2.277 -0.167 -2.277 -0.167 -4.667 0" fill="#030303"/><path d="M137.334 153.334h8l-0.061 1.999 -0.46 15.059 -0.044 1.437c-0.075 2.419 -0.075 2.419 -0.101 4.839l3.333 -0.667c1.068 -2.871 1.559 -5.421 1.755 -8.473l0.169 -2.513 0.159 -2.597 0.175 -2.643q0.21 -3.22 0.409 -6.44h8c0.061 5.17 0.007 10.333 -0.167 15.5l-0.029 1.67c-0.191 4.793 -1.343 9.079 -4.847 12.497 -3.93 2.419 -8.49 2.133 -12.958 1.667 -1.957 -0.892 -2.608 -1.623 -4 -3.333 -1.003 -3.007 -0.793 -5.975 -0.791 -9.125l-0.001 -2.072c0.039 -5.691 0.547 -11.187 1.459 -16.803" fill="#020101"/><path d="M222.667 153.334c2.397 1.933 3.748 4.432 4.667 7.333 0.589 7.551 0.731 14.999 -4.375 21.042 -1.752 1.872 -2.752 2.867 -5.365 3.14 -6.353 0.206 -6.353 0.206 -8.636 -1.557 -3.167 -3.817 -3.985 -7.297 -3.917 -12.125l0.015 -1.502c0.175 -5.869 1.71 -11.14 5.86 -15.457C214.46 151.347 218.679 151.62 222.667 153.334m-6 6c-2.595 3.736 -2.801 6.953 -2.833 11.417l-0.041 1.471c-0.035 1.572 -0.035 1.572 0.208 3.779l2 1.333c2.02 -1.469 2.573 -3.265 3.101 -5.649 0.912 -6.463 0.912 -6.463 -1.101 -12.351z" fill="#F63535"/><path d="M247.156 154.248c2.12 1.524 2.679 2.589 3.511 5.086 0.457 4.017 0.723 8.232 -1.649 11.693 -3.3 3.155 -7.997 4.599 -12.351 5.64l-0.667 8h-8q0.12 -4.177 0.248 -8.353 0.043 -1.415 0.083 -2.83c0.175 -6.065 0.472 -12.103 1.002 -18.15 12.682 -3.664 12.682 -3.664 17.823 -1.086M237.334 161.334l-0.667 6.667c2.508 -0.348 4.215 -0.815 6 -2.667 0.333 -1.695 0.333 -1.695 0 -3.333l-1.333 -1.333c-2.035 -0.105 -2.035 -0.105 -4 0.667m-7.333 18.667v3.333h0.667v-3.333z" fill="#F83534"/><path d="M176 153.334c2.369 1.686 3.091 2.608 4 5.333 0.153 4.361 0.153 4.361 -0.667 6q-1.647 0.026 -3.291 0.042l-1.852 0.023C172.667 164.667 172.667 164.667 172 164c-0.027 -1.333 -0.029 -2.667 0 -4h-2c0.177 2.476 0.34 3.671 2.12 5.463l1.797 1.287c5.164 3.749 5.164 3.749 5.682 6.828 -0.032 3.485 -0.135 6.177 -2.265 9.089 -3.604 2.845 -8.303 2.493 -12.667 2 -2.14 -0.679 -4.059 -1.543 -6 -2.667 0.371 -2.229 0.901 -4.022 2 -6l9.333 1.333c-0.217 -1.979 -0.548 -2.57 -2.12 -3.854l-1.797 -1.146c-2.265 -1.453 -4.057 -2.642 -5.417 -5 -0.652 -3.874 -0.258 -7.397 2 -10.667 4.169 -3.763 7.815 -3.955 13.333 -3.333" fill="#F33636"/><path d="M135.334 153.334v6.667c-2.904 1.085 -5.493 1.561 -8.583 1.75l-2.328 0.151L122.667 162v4l2.018 -0.023 2.607 -0.019 2.602 -0.023C132 166 132 166 132.667 166.667c0.065 1.109 0.087 2.222 0.083 3.333l0.005 1.833C132.667 173.334 132.667 173.334 132 174c-3.1 0.525 -6.217 0.912 -9.333 1.333l-0.667 9.333h-8c-0.153 -10.323 0.125 -20.41 1.333 -30.667 3.299 -0.811 6.621 -0.917 10 -1.083l1.797 -0.104c2.845 -0.145 5.427 -0.255 8.203 0.521" fill="#020202"/><path d="M106 152.667h8c0.764 2.291 0.612 3.71 0.399 6.109 -0.431 5.379 -0.618 10.749 -0.773 16.141l-0.087 2.86q-0.105 3.445 -0.205 6.89 -2.147 0.026 -4.291 0.042l-2.415 0.023C104.667 184.667 104.667 184.667 104 184a89.333 89.333 0 0 1 0.057 -4.258l0.043 -1.32q0.047 -1.395 0.098 -2.789 0.075 -2.082 0.14 -4.165c0.555 -16.587 0.555 -16.587 1.662 -18.801m0.667 2 0.667 2 0.667 -2z" fill="#020202"/><path d="m184.313 152.578 2.021 0.005 2.021 -0.005C190 152.667 190 152.667 190.667 153.334a150 150 0 0 1 -0.291 5.709l-0.106 1.629q-0.131 1.998 -0.269 3.996h5.333l0.667 -12h8.667v5.333h-1.333v-4.667l-6 0.667 -0.029 2.047c-0.244 8.138 -0.244 8.138 -2.347 10.579L193.334 168l-2 -0.667v-2h-2l-0.667 -3.333h-3.333a56.667 56.667 0 0 1 1.333 -4.667l-2.667 -0.667 -0.123 1.289 -0.169 1.669 -0.165 1.664C183.334 162.667 183.334 162.667 182.667 163.334a112 112 0 0 0 -0.375 4.375l-0.169 2.419L182 172h-0.667c-0.085 -6.236 -0.069 -12.464 0.667 -18.667 0.667 -0.667 0.667 -0.667 2.313 -0.755" fill="#FB3433"/><path d="M198 172.417c1.687 1.159 2.39 2.457 3.333 4.25l0.667 -2h1.333v10h-8.667v-12c2 -0.667 2 -0.667 3.333 -0.25" fill="#F53837"/><path d="M223.792 154.834c1.663 1.259 2.121 1.925 2.875 3.833 0.177 1.649 0.177 1.649 0.167 3.375l0.011 1.731C226.667 165.334 226.667 165.334 225.334 167.334c-1.625 0.25 -1.625 0.25 -3.333 0 -1.91 -1.479 -2.315 -2.742 -2.708 -5.083 -0.241 -1.569 -0.241 -1.569 -0.625 -2.917l-1.333 -0.667c-0.417 -2.041 -0.417 -2.041 -0.667 -4 2.758 -0.919 4.454 -1.075 7.125 0.167" fill="#FA3434"/><path d="M226.667 160.667h0.667c0.479 15.286 0.479 15.286 -3.07 19.172L223.334 180.667v-4.667l-2 0.667 -0.667 -2.667h1.333v-3.333l-1.333 1.333 0.667 1.333h-2l-1.333 3.333c-0.935 -1.871 -0.227 -3.019 0.302 -4.951C219.027 168.307 219.132 164.807 219.334 161.334h0.667l0.209 1.917c0.248 2.277 0.248 2.277 2.458 3.417h2.667z" fill="#FA3736"/><path d="m234.667 169.334 3.333 1.333c-0.5 3.833 -0.5 3.833 -2 5.333 -0.309 1.928 -0.309 1.928 -0.417 4.083l-0.151 2.213L235.334 184h-4.667v-4h-1.333v-2.667h1.333l-0.25 -2.125c0.25 -2.542 0.25 -2.542 1.14 -3.594 0.996 -0.813 2.051 -1.553 3.11 -2.281" fill="#FA3332"/><path d="M164.667 178c2.737 0.221 5.359 0.563 8 1.333l-0.667 1.333c1.445 -0.555 1.445 -0.555 2 -2l2.667 1.333v2h-1.333v1.333c-1.277 0.131 -2.555 0.254 -3.833 0.375l-2.156 0.211c-1.8 0.072 -3.023 0.096 -4.677 -0.586 -1.333 -2 -1.333 -2 -1.333 -4z" fill="#FB3231"/><path d="M250 159.334h0.667c0.505 8.543 0.505 8.543 -1.64 11.685 -2.161 2.068 -4.849 3.44 -7.693 4.315 -1.541 -0.25 -1.541 -0.25 -2.667 -0.667 0.5 -1.625 0.5 -1.625 1.333 -3.333 1.375 -0.417 1.375 -0.417 2.667 -0.667l0.667 -2 1.333 0.667 -0.667 1.333 4 -2.667 -1.333 -2.667h2z" fill="#F73332"/><path d="m245.334 158.667 1.333 0.667 2 -0.667 1.333 0.667 -0.667 6.667 -2.667 -0.667 2 3.333c-3.167 2 -3.167 2 -4.667 2 -0.667 -1.333 -0.667 -1.333 -1.333 -3.333l3.333 -1.333c-0.232 -1.317 -0.232 -1.317 -0.667 -2.667l-1.333 -0.667z" fill="#FD3131"/><path d="M174 172c1.996 0.665 3.138 1.243 4.667 2.667v2.667h-1.333v1.333l-3.333 0.667v1.333h-2v-1.333h-5.333l1.292 -0.5c1.467 -0.711 1.467 -0.711 1.958 -2.125 0.235 -1.584 0.235 -1.584 -1.25 -3.375l1.333 -0.667 2 4z" fill="#F23A38"/><path d="M187.334 175.334h1.333v8.667c-2.315 0.772 -4.24 0.713 -6.667 0.667 0 -2.851 0.471 -3.707 2 -6l2 0.667v-1.333h1.333l0.667 -1.333 -1.333 -0.667z" fill="#FB3331"/><path d="M198 172.417c1.759 1.209 2.473 2.302 3.333 4.25 -0.208 1.875 -0.208 1.875 -0.667 3.333l-2 0.667c-1.023 -2.046 -0.367 -3.8 0 -6 -1.401 0.645 -1.401 0.645 -2.667 2 -0.443 1.8 -0.545 3.471 -0.667 5.333h1.333l0.667 1.333c1.417 0.311 1.417 0.311 3.042 0.417l1.669 0.151L203.334 184v0.667h-8.667v-12c2 -0.667 2 -0.667 3.333 -0.25" fill="#FC3A3D"/><path d="M196 152.667h8.667v5.333h-1.333v-4.667l-6 0.667 -0.029 2.047c-0.244 8.138 -0.244 8.138 -2.347 10.579L193.334 168l-2 -0.667v-2h-2v-5.333h0.667v4.667h5.333z" fill="#E04445"/><path d="m111.333 167.334 2 0.667c0.244 4.233 0.244 4.233 -0.917 6.292C111.333 175.334 111.333 175.334 110 175.334v2h2.667v4.667l-2 0.667c-1.389 -2.5 -2.395 -4.587 -1.593 -7.453q0.539 -1.555 1.133 -3.091c0.595 -1.625 0.595 -1.625 0.461 -4.123z" fill="#111111"/><path d="M228.667 164h0.667l0.051 1.416q0.117 3.188 0.241 6.376l0.08 2.227 0.085 2.155 0.073 1.978c0.132 1.777 0.415 3.444 0.804 5.181l4.667 0.667v-8l2.667 -0.667 -1.333 1.333c-0.309 1.928 -0.309 1.928 -0.417 4.083L236 184.667h-8z" fill="#D44B4E"/><path d="m184.313 152.578 2.021 0.005 2.021 -0.005C190 152.667 190 152.667 190.667 153.334c0.027 1.111 0.029 2.223 0 3.333l-0.667 -2.667 -1.833 0.375c-2.005 0.269 -2.959 0.175 -4.833 -0.375l0.023 1.873c0.007 0.798 0.012 1.597 0.018 2.419l0.024 2.413C183.334 162.667 183.334 162.667 182.667 163.334a112 112 0 0 0 -0.375 4.375l-0.169 2.419L182 172h-0.667c-0.085 -6.236 -0.069 -12.464 0.667 -18.667 0.667 -0.667 0.667 -0.667 2.313 -0.755" fill="#DB4646"/><path d="M176 157.334c1.375 0.167 1.375 0.167 2.667 0.667 0.903 1.806 0.71 3.34 0.667 5.333h-6.667v-3.333h2v-1.333z" fill="#FD3131"/><path d="m223.334 168 2.667 1.333c0.065 4.101 0.065 4.101 0 5.333 -1.213 1.213 -3.065 1.466 -4.667 2l-0.667 -2.667h1.333v-4l1.333 -0.667z" fill="#FD4846"/><path d="M198.667 174.667c0.667 2 0.667 2 0.333 3.625 -0.342 1.753 -0.224 2.703 0.333 4.375l-2.667 0.667v-1.333h-1.333a130.667 130.667 0 0 1 -0.125 -2.917l-0.071 -1.64L195.334 176c2 -1.333 2 -1.333 3.333 -1.333" fill="#FB322F"/><path d="M226.667 160.667h0.667c0.479 15.286 0.479 15.286 -3.07 19.172L223.334 180.667l0.333 -2.208c0.378 -2.375 0.378 -2.375 0.333 -4.459h1.333l0.123 -1.732c0.285 -3.892 0.583 -7.749 1.211 -11.601" fill="#DD4C4B"/><path d="M229.334 155.334h0.667l0.667 14.667h1.333l-0.333 2.459c-0.263 2.085 -0.399 4.103 -0.333 6.208l-0.667 -1.333h-1.333z" fill="#EF4242"/><path d="M250 159.334h0.667c0.295 4.987 0.502 8.641 -2.667 12.667 -1.75 1.333 -1.75 1.333 -3.333 2l-1.333 -0.667 1.959 -1.167c2.053 -1.269 2.053 -1.269 2.708 -2.833 0 -1.649 -0.486 -2.604 -1.333 -4h2z" fill="#F33F41"/><path d="M203.334 159.334h0.667v14l-2.667 0.667 -0.667 -4h1.333z" fill="#ED3D3B"/><path d="M212.667 178.667c0.973 1.765 1.333 2.596 1.333 4.667h6.667c-1.783 1.783 -2.765 1.553 -5.25 1.583l-2.12 0.057c-2.377 -0.372 -3.132 -1.143 -4.63 -2.974l3.333 0.667z" fill="#E83A3D"/><path d="M174 172c1.996 0.665 3.138 1.243 4.667 2.667v2.667h-1.333v1.333h-2.667z" fill="#FC4745"/><path d="M161.334 158.667h0.667v8l2 0.667 0.667 3.333c-2.107 -0.913 -2.662 -1.327 -4 -3.333 -0.153 -1.583 -0.153 -1.583 -0.125 -3.333l0.013 -1.75C160.667 160.667 160.667 160.667 161.334 158.667" fill="#DA3E40"/><path d="m178 171.334 1.333 0.667c0.214 4.011 0.382 7.227 -2 10.667l-2 0.667v-1.333h1.333c-0.517 -2.05 -0.517 -2.05 -2 -3.333h2.667v-1.333h1.333z" fill="#E13D3F"/><path d="M194.667 172.667h0.667c0.609 3.313 0.609 6.02 0 9.333h1.333l0.667 1.333c1.417 0.311 1.417 0.311 3.042 0.417l1.669 0.151L203.334 184v0.667h-8.667z" fill="#DC4E4D"/><path d="M205.334 166h0.667l0.667 8h0.667l1.333 8c-2.671 -2.671 -3.279 -4.213 -3.463 -7.992q0.013 -1.442 0.047 -2.883l0.018 -1.497c0.016 -1.209 0.04 -2.419 0.065 -3.629" fill="#DD4445"/><path d="M219.334 161.334h0.667l0.123 2.287 0.169 2.963 0.08 1.508c0.106 2.709 0.106 2.709 0.962 5.242h-2l-1.333 3.333c-0.935 -1.871 -0.227 -3.019 0.302 -4.951C219.027 168.307 219.132 164.807 219.334 161.334" fill="#DD4E51"/><path d="M169.334 163.334q1.462 0.931 2.917 1.875l1.64 1.055C175.334 167.334 175.334 167.334 176.667 169.334l-3.333 0.667 -0.875 -1.541c-1.017 -1.767 -1.017 -1.767 -2.25 -2.917L169.334 164.667z" fill="#E03E3D"/><path d="m194.667 166 4 1.333c-0.791 1.042 -0.791 1.042 -2 2 -1.791 -0.208 -1.791 -0.208 -3.333 -0.667z" fill="#FD3F3B"/><path d="M240 171.334c1.292 0.542 1.292 0.542 2.667 1.333l0.667 2 -4.667 0.667z" fill="#EB4D4B"/><path d="M106 168.667c1.021 2.723 0.42 5.197 0 8 -1.393 -2.263 -1.563 -4.032 -1.333 -6.667z" fill="#0F0F0F"/><path d="M216.709 158.626 218.667 158.667l0.667 2.667 -2.667 -1.333 -2 2.667a58.667 58.667 0 0 1 -0.667 -3.333c0.667 -0.667 0.667 -0.667 2.709 -0.708" fill="#EA3C3F"/><path d="M238.667 169.334h4.667l-0.667 2.667h-3.333z" fill="#F8393C"/><path d="m249.334 167.334 0.667 2c-1.769 2.901 -3.405 3.851 -6.667 4.667 1.289 -1.35 2.421 -2.281 4 -3.333a58.667 58.667 0 0 0 2 -3.333" fill="#D24C4B"/><path d="m184 154 4.667 0.667 -1.333 2c-1.75 0.125 -1.75 0.125 -3.333 0z" fill="#F8423E"/><path d="M136.667 158h1.333l0.667 4.667 -2 0.667z" fill="#0C0C0C"/><path d="M111.333 177.334h1.333v4.667l-2 0.667c-0.083 -3.833 -0.083 -3.833 0.667 -5.333" fill="#101010"/><path d="M200.667 173.334h3.333v1.333h-2l-0.667 2.667 -1.333 -1.333c0.25 -1.417 0.25 -1.417 0.667 -2.667" fill="#FE292C"/><path d="M210.667 178.667c1.333 1.333 1.333 1.333 1.333 4l-2.667 -0.667c0.583 -2.583 0.583 -2.583 1.333 -3.333" fill="#FD322A"/><path d="m109.333 174.667 2 0.667h-1.333v2h1.333v1.333h-1.333l-0.667 1.333c-0.533 -2.191 -0.731 -3.14 0 -5.333" fill="#282828"/><path d="m220 165.334 2.667 1.333 -1.333 3.333h-1.333z" fill="#F74642"/><path d="M102.667 160.667v3.333h-1.333l-0.667 2.667v-5.333c1.333 -0.667 1.333 -0.667 2 -0.667" fill="#161616"/></svg>